HIERARCHY
ROOT root
{
	OFFSET 0.000000 0.000000 0.000000
	CHANNELS 6 Xposition Yposition Zposition Zrotation Yrotation Xrotation
	JOINT lhip
	{
		OFFSET 0.058581 -0.082280 -0.017664
		CHANNELS 3 Zrotation Yrotation Xrotation
		JOINT lknee
		{
			OFFSET 0.043451 -0.386469 0.008037
			CHANNELS 3 Zrotation Yrotation Xrotation
			JOINT lankle
			{
				OFFSET -0.014790 -0.426874 -0.037428
				CHANNELS 3 Zrotation Yrotation Xrotation
				JOINT ltoe
				{
					OFFSET 0.041054 -0.060286 0.122042
					CHANNELS 3 Zrotation Yrotation Xrotation
					End Site
					{
						OFFSET 0.000000 0.000000 0.000000
					}
				}
			}
		}
	}
	JOINT rhip
	{
		OFFSET -0.060310 -0.090513 -0.013543
		CHANNELS 3 Zrotation Yrotation Xrotation
		JOINT rknee
		{
			OFFSET -0.043257 -0.383688 -0.004843
			CHANNELS 3 Zrotation Yrotation Xrotation
			JOINT rankle
			{
				OFFSET 0.019056 -0.420046 -0.034562
				CHANNELS 3 Zrotation Yrotation Xrotation
				JOINT rtoe
				{
					OFFSET -0.034840 -0.062106 0.130323
					CHANNELS 3 Zrotation Yrotation Xrotation
					End Site
					{
						OFFSET 0.000000 0.000000 0.000000
					}
				}
			}
		}
	}
	JOINT lowerback
	{
		OFFSET 0.004439 0.124404 -0.038385
		CHANNELS 3 Zrotation Yrotation Xrotation
		JOINT upperback
		{
			OFFSET 0.004488 0.137956 0.026820
			CHANNELS 3 Zrotation Yrotation Xrotation
			JOINT chest
			{
				OFFSET -0.002265 0.056032 0.002855
				CHANNELS 3 Zrotation Yrotation Xrotation
				JOINT lowerneck
				{
					OFFSET -0.013390 0.211636 -0.033468
					CHANNELS 3 Zrotation Yrotation Xrotation
					JOINT upperneck
					{
						OFFSET 0.010113 0.088937 0.050410
						CHANNELS 3 Zrotation Yrotation Xrotation
						End Site
						{
							OFFSET 0.000000 0.000000 0.000000
						}
					}
				}
				JOINT lclavicle
				{
					OFFSET 0.071702 0.114000 -0.018898
					CHANNELS 3 Zrotation Yrotation Xrotation
					JOINT lshoulder
					{
						OFFSET 0.122921 0.045205 -0.019046
						CHANNELS 3 Zrotation Yrotation Xrotation
						JOINT lelbow
						{
							OFFSET 0.255332 -0.015649 -0.022946
							CHANNELS 3 Zrotation Yrotation Xrotation
							JOINT lwrist
							{
								OFFSET 0.265709 0.012698 -0.007375
								CHANNELS 3 Zrotation Yrotation Xrotation
								End Site
								{
									OFFSET 0.000000 0.000000 0.000000
								}
							}
						}
					}
				}
				JOINT rclavicle
				{
					OFFSET -0.082954 0.112472 -0.023707
					CHANNELS 3 Zrotation Yrotation Xrotation
					JOINT rshoulder
					{
						OFFSET -0.113228 0.046853 -0.008472
						CHANNELS 3 Zrotation Yrotation Xrotation
						JOINT relbow
						{
							OFFSET -0.260127 -0.014369 -0.031269
							CHANNELS 3 Zrotation Yrotation Xrotation
							JOINT rwrist
							{
								OFFSET -0.269108 0.006794 -0.006027
								CHANNELS 3 Zrotation Yrotation Xrotation
								End Site
								{
									OFFSET 0.000000 0.000000 0.000000
								}
							}
						}
					}
				}
			}
		}
	}
}
MOTION
Frames: 17
Frame Time: 0.033333
-0.067511 0.365892 0.550641 83.152460 1.388464 78.026855 15.885541 2.055733 -68.339784 -10.113427 23.245925 122.236507 7.064216 3.404929 -37.596949 0.000000 -0.000000 0.000000 -29.259910 -27.271786 -45.380688 -0.533101 -13.908837 133.719996 2.201797 8.969306 -36.174761 0.000000 -0.000000 0.000000 11.672788 2.998715 64.795963 2.455067 6.239204 5.098836 1.969422 7.397508 10.234475 -6.250178 -5.170132 22.171196 -2.279215 -5.283760 7.272468 -5.625363 -11.447361 -4.791728 -63.865667 0.320645 22.934040 -130.112018 -72.728137 171.851349 64.792468 -5.879560 -18.316405 3.497043 27.601047 -4.211862 33.685934 25.950930 -11.854919 -9.364875 25.870465 -21.838638 -31.437417 10.913885 -7.922434 
-0.067435 0.366311 0.549338 83.072693 1.420172 77.835852 15.950753 1.910197 -68.346684 -9.941301 23.233170 122.579528 6.952450 3.393408 -37.547416 0.000000 -0.000000 0.000000 -29.408393 -27.130682 -45.312616 -0.573794 -13.823541 133.913982 2.213455 9.181899 -36.162300 0.000000 -0.000000 0.000000 11.713581 3.002697 64.811105 2.520751 6.232868 5.455037 1.856305 7.320744 9.988738 -5.961070 -4.974610 21.811388 -2.415580 -5.393164 7.492054 -5.511972 -11.124034 -5.051867 -63.898262 0.333278 23.103252 -129.960265 -72.548047 171.740581 64.071521 -5.969616 -18.430431 3.487200 27.245755 -4.482672 33.989568 26.109431 -11.385663 -9.172555 26.062001 -21.703145 -31.517400 10.812867 -8.297246 
-0.067328 0.366388 0.548500 82.968261 1.375158 77.650609 15.891398 1.832673 -68.301471 -9.759652 23.127190 122.893428 6.839179 3.206949 -37.525675 0.000000 -0.000000 0.000000 -29.401343 -27.058058 -45.342708 -0.571348 -13.620830 134.120110 2.264292 9.229792 -36.102237 0.000000 -0.000000 0.000000 11.603828 3.077270 64.856212 2.550866 6.198714 5.482675 1.857090 7.294782 9.920740 -5.908087 -4.900078 21.889298 -2.461156 -5.317196 7.576526 -5.699364 -11.135180 -5.005741 -63.659721 0.341094 23.148744 -131.021255 -72.451019 172.464890 63.744510 -6.158658 -18.709967 3.839877 27.351447 -4.248607 34.082362 26.070414 -11.130860 -9.650309 26.309655 -22.654987 -31.196080 10.988201 -8.330666 
-0.067319 0.366714 0.547379 82.960798 1.422916 77.583762 15.937439 1.604527 -68.408102 -9.746620 23.206054 123.088943 6.860989 3.386250 -37.596180 0.000000 -0.000000 0.000000 -29.436583 -27.006244 -45.377119 -0.550823 -13.644057 134.286667 2.234634 9.211917 -36.146343 0.000000 -0.000000 0.000000 11.617545 3.063640 64.759964 2.587910 6.134846 5.365363 1.865838 7.271606 9.989739 -5.916421 -4.895488 22.102057 -2.301845 -5.341040 7.528212 -5.747631 -11.228606 -4.895955 -63.618435 0.279664 23.181568 -131.409805 -72.446858 172.656753 63.881550 -5.976895 -18.506585 3.976649 27.289507 -4.190993 34.129705 26.056751 -11.088960 -9.397464 26.499886 -22.363525 -31.742655 10.963390 -8.563499 
-0.066947 0.367036 0.545806 83.019028 1.535943 77.460725 15.991005 1.445777 -68.492529 -9.531295 23.124882 123.472392 6.817805 3.339685 -37.675096 0.000000 -0.000000 0.000000 -29.526877 -27.071477 -45.252805 -0.505454 -13.606125 134.511486 2.264417 9.268071 -36.152887 0.000000 -0.000000 0.000000 11.752369 2.959673 64.552201 2.649819 6.020735 5.494426 1.837301 7.245367 9.928696 -6.003003 -4.915095 22.240917 -2.374732 -5.156677 7.555984 -5.832353 -11.410155 -4.759931 -63.478915 0.359488 23.065770 -131.493332 -72.406501 172.703148 64.050416 -6.103083 -18.530353 4.183970 27.436579 -3.996446 34.250961 25.998737 -11.194860 -9.820461 26.553307 -22.728928 -31.840177 11.123769 -7.873717 
-0.067068 0.366694 0.544833 82.849653 1.553491 77.366872 16.105331 1.614683 -68.518760 -9.674958 23.163779 123.669580 6.469355 2.971135 -37.500808 0.000000 -0.000000 0.000000 -29.365486 -26.867240 -45.483623 -0.464615 -13.548073 134.765565 2.290182 9.276003 -36.161908 0.000000 -0.000000 0.000000 11.517633 3.081994 64.619341 2.650391 6.046867 5.305815 1.893972 7.282200 9.959667 -5.977798 -4.797314 22.343587 -2.569101 -5.203700 7.657281 -5.824491 -11.265855 -4.828446 -63.280167 0.404113 23.067008 -131.419148 -72.178249 172.663066 64.367276 -5.950140 -19.100151 4.163711 27.490200 -4.069730 34.365329 26.124587 -10.964127 -9.686638 26.403494 -22.123282 -32.484066 11.126637 -8.318695 
-0.066939 0.366403 0.543759 82.769426 1.563249 77.171573 16.197828 1.723798 -68.499774 -9.832839 23.138101 123.885235 6.273735 2.598723 -37.337773 0.000000 -0.000000 0.000000 -29.684429 -26.957318 -45.201232 -0.421125 -13.559450 134.926727 2.220783 9.677926 -36.161360 0.000000 -0.000000 0.000000 11.474873 3.233945 64.702190 2.733245 6.038996 5.366094 1.928009 7.282681 9.946880 -5.875506 -4.766376 22.329441 -2.590274 -5.433083 7.610974 -5.867916 -11.315438 -4.848118 -63.073312 0.396258 23.170476 -131.658425 -72.116746 173.115166 64.358564 -5.833664 -18.921193 4.338866 27.505680 -4.116837 34.275607 26.192937 -10.961602 -9.478172 26.315743 -21.784278 -32.458663 10.799822 -8.269631 
-0.066832 0.366484 0.542465 82.753452 1.579150 76.986921 16.275900 1.737664 -68.471426 -9.770222 23.169647 124.091518 6.302140 2.526604 -37.327033 0.000000 -0.000000 0.000000 -29.602612 -26.873687 -45.158158 -0.279734 -13.487395 135.055864 2.239490 9.462385 -36.281865 0.000000 -0.000000 0.000000 11.539780 3.344459 64.582249 2.847749 6.073131 5.700394 1.972521 7.231814 9.873575 -5.774669 -4.905448 22.210783 -2.625491 -5.701779 7.795680 -5.782353 -11.335819 -4.879617 -63.236551 0.280998 23.311043 -132.514163 -72.148356 173.272834 65.171667 -5.576223 -19.222481 4.288652 27.370932 -4.250998 34.243103 26.122095 -10.770618 -9.518351 26.559601 -21.970910 -33.602631 11.393604 -7.904998 
-0.066751 0.366664 0.541160 82.815837 1.642234 76.955378 16.280488 1.701061 -68.612161 -9.705856 23.116598 124.310207 6.282001 2.452722 -37.449262 0.000000 -0.000000 0.000000 -29.668666 -27.000830 -45.177860 -0.243596 -13.456904 135.237793 2.286443 9.575424 -36.259353 0.000000 -0.000000 0.000000 11.642310 3.297988 64.438476 2.886574 6.044095 5.647023 1.936376 7.221900 9.930604 -5.801733 -4.896017 22.437264 -2.599878 -5.720345 7.719763 -5.783112 -11.298772 -4.905261 -63.288526 0.196519 23.268364 -131.772190 -72.209596 172.850672 65.058122 -5.457556 -19.218474 4.353672 27.316441 -4.131187 34.320593 26.072085 -10.720871 -9.511240 26.644514 -21.602883 -33.839429 11.215069 -8.169771 
-0.066920 0.366596 0.540324 82.721736 1.700670 76.838355 16.344696 1.721559 -68.581029 -9.698136 23.043781 124.487820 6.193539 2.374529 -37.523183 0.000000 -0.000000 0.000000 -29.638516 -26.871866 -45.178431 -0.239595 -13.466017 135.356934 2.194028 9.601683 -36.258354 0.000000 -0.000000 0.000000 11.646976 3.328094 64.447646 2.884244 6.068055 5.842345 1.908639 7.264515 9.739098 -5.889775 -4.857021 22.477209 -2.654433 -5.720993 7.851580 -5.816672 -11.345729 -4.929550 -63.382017 0.335099 23.087522 -131.191492 -72.307590 172.550836 64.596126 -6.125552 -18.842550 4.387861 27.435274 -4.075414 34.449016 25.916520 -10.789402 -9.813558 26.793313 -21.354841 -33.109954 11.491483 -7.629711 
-0.067102 0.366446 0.539676 82.730434 1.669295 76.741982 16.431548 1.616482 -68.616897 -9.693111 23.106135 124.546027 6.144893 2.246378 -37.502309 0.000000 -0.000000 0.000000 -29.646944 -26.850835 -45.244778 -0.187502 -13.474142 135.457686 2.254990 9.489925 -36.220478 0.000000 -0.000000 0.000000 11.598049 3.349735 64.503474 2.894038 6.016262 6.053812 1.884196 7.247715 9.593826 -5.973463 -4.768234 22.246051 -2.721686 -5.794950 7.920111 -5.794455 -11.238992 -5.129072 -63.397852 0.571901 23.067663 -131.515579 -72.073374 172.746220 64.154389 -6.243047 -18.799979 4.466185 27.462341 -4.160621 34.618724 25.888867 -10.590517 -10.350829 27.212664 -21.837746 -32.753391 11.477004 -6.571235 
-0.067350 0.366254 0.539572 82.718982 1.567112 76.647634 16.329506 1.579235 -68.551938 -9.759517 23.078790 124.535615 6.089998 2.228135 -37.427541 0.000000 -0.000000 0.000000 -29.704664 -26.810105 -45.234250 -0.202998 -13.381857 135.509097 2.208090 9.481118 -36.237256 0.000000 -0.000000 0.000000 11.476037 3.398926 64.642357 2.900488 6.012990 5.995478 1.858860 7.256373 9.634639 -5.966012 -4.758943 22.224048 -2.873070 -5.805251 8.038764 -6.017481 -11.206119 -5.071939 -63.098330 0.544292 23.102649 -131.816785 -71.936992 173.236397 64.077071 -6.417545 -18.661464 4.843549 27.511968 -3.944016 34.202696 26.044346 -10.809237 -10.381374 27.395495 -21.969625 -32.276855 11.475485 -6.319231 
-0.067799 0.366069 0.539832 82.746466 1.539962 76.565422 16.251058 1.561689 -68.460763 -9.840592 23.065097 124.443878 6.022161 2.317089 -37.429604 0.000000 -0.000000 0.000000 -29.708696 -26.707447 -45.146708 -0.253152 -13.360136 135.480890 2.270117 9.494770 -36.273545 0.000000 -0.000000 0.000000 11.483299 3.446648 64.726708 2.942490 6.060553 6.106938 1.870739 7.259585 9.641073 -5.866607 -4.703626 22.150612 -2.896411 -5.917731 7.989218 -6.075659 -11.257161 -5.097099 -63.046721 0.385663 23.183280 -131.876678 -71.939293 173.463015 64.219166 -6.225672 -18.890138 4.878860 27.401120 -3.917307 33.860968 26.141358 -10.794583 -10.189550 27.797453 -21.311293 -33.019172 10.856089 -6.941171 
-0.068191 0.365713 0.540602 82.813996 1.504251 76.628324 16.120553 1.578777 -68.443095 -9.896128 22.993352 124.252333 6.252204 2.444894 -37.578161 0.000000 -0.000000 0.000000 -29.579207 -26.683147 -45.210613 -0.224655 -13.349243 135.348933 2.320597 9.462157 -36.292001 0.000000 -0.000000 0.000000 11.465627 3.480769 64.757000 3.014400 6.060552 6.085849 1.892635 7.302546 9.671028 -6.029527 -4.758078 22.289263 -2.957143 -5.879440 8.042736 -6.300189 -11.400227 -5.150245 -62.717535 0.379796 23.327798 -131.710637 -71.935162 173.245382 64.470458 -6.382449 -18.571277 5.275259 27.513990 -3.703383 33.256894 26.212540 -11.041540 -10.486632 28.242323 -21.646689 -32.192388 10.521491 -6.408244 
-0.068784 0.365242 0.541293 82.898292 1.472190 76.749175 16.137639 1.613113 -68.504452 -10.028575 23.035208 124.016919 6.248867 2.445475 -37.653136 0.000000 -0.000000 0.000000 -29.522528 -26.614701 -45.290606 -0.233504 -13.435204 135.253265 2.392495 9.547929 -36.310756 0.000000 -0.000000 0.000000 11.362844 3.496807 64.656141 3.080278 6.057330 6.122233 1.886901 7.393157 9.702296 -5.985454 -4.639533 22.472025 -2.898139 -6.013113 8.119783 -6.256485 -11.476771 -5.263685 -62.646771 0.525942 23.445494 -132.277102 -71.910305 173.772504 64.242744 -6.242168 -18.685079 5.256524 27.669609 -3.728520 33.009159 26.538939 -11.222740 -11.032381 28.492868 -22.477152 -31.448764 8.659181 -6.711577 
-0.069599 0.364856 0.542640 83.033292 1.392039 76.892997 16.158300 1.641656 -68.533155 -10.109142 23.145111 123.703701 6.269446 2.350823 -37.545844 0.000000 -0.000000 0.000000 -29.536064 -26.587841 -45.323371 -0.249450 -13.567900 135.046621 2.500981 9.568134 -36.243549 0.000000 -0.000000 0.000000 11.367318 3.516106 64.472116 3.137318 6.063075 6.310249 1.877900 7.344207 9.840333 -5.791617 -4.646953 22.360149 -3.024203 -6.178373 8.134787 -6.341909 -11.626899 -5.201237 -62.550474 0.372537 23.640145 -132.934132 -72.203407 174.482157 64.208427 -6.420377 -18.703882 5.245981 27.810896 -3.808364 32.250475 27.114501 -11.476086 -10.687197 27.867212 -22.543830 -31.338237 8.116228 -6.529637 
-0.070353 0.364185 0.544811 83.138029 1.277307 77.032377 16.183973 1.603361 -68.373867 -10.086464 23.143588 123.277894 6.215676 2.183109 -37.647466 0.000000 -0.000000 0.000000 -29.455529 -26.423134 -45.287093 -0.380340 -13.621635 134.726360 2.463617 9.552806 -36.411175 0.000000 -0.000000 0.000000 11.237340 3.578488 64.318204 3.151670 6.053849 6.620579 1.913221 7.393591 9.807717 -5.550528 -4.593305 22.444331 -3.232332 -6.358902 8.130185 -6.398320 -11.718609 -5.122457 -62.480631 0.313649 23.792825 -134.296449 -72.346381 175.371600 63.673506 -6.452248 -18.600822 5.213115 28.204294 -3.770258 31.373775 27.824969 -11.896302 -10.175283 26.499997 -22.703431 -31.891717 8.541227 -5.803939 
